# xmcd
#
# Track frame offsets:
#	150
#	18223
#	35993
#	49643
#	63515
#	77793
#	93588
#	107063
#	120073
#
# Disc length: 1771 seconds
#
# Revision: 0
# Processed by: cddbd v1.5.2PL0 Copyright (c) Steve Scherf et al.
# Submitted via: EasyCDDAExtractor 15.3.0.1
#
DISCID=6b06e909
DTITLE=Slavko Banjac - Dodir Kao Led
DYEAR=1993
DGENRE=Pop
TTITLE0=Dodir Kao Led
TTITLE1=Kasno je
TTITLE2=Niko mi te ne moze oteti iz duse
TTITLE3=Uzmite dusu,uzmite sve
TTITLE4=Gde si sad ti
TTITLE5=Ne verujem lepim zenama
TTITLE6=Ako te lazem ubio me Bog
TTITLE7=Daleko negde ,ko zna gde
TTITLE8=Nek do vraga odu kafane i zene
EXTD=
EXTT0=
EXTT1=
EXTT2=
EXTT3=
EXTT4=
EXTT5=
EXTT6=
EXTT7=
EXTT8=
PLAYORDER=
